<svg xmlns="http://www.w3.org/2000/svg" width="1024" height="1024" viewBox="0 0 1024 1024"><circle cx="512" cy="512" r="512" fill="#9bd5d4"/><path fill="#fff" stroke="#bdbcbc" stroke-width="16.4" d="M620.6 808.7c-6.3 0-8-5-9.7-9.6a467.9 467.9 0 0 1-3.8-11.3c-2.8-8.8-6.8-21.3-11.6-37-9.3-30.3-19.9-65.5-26-86.3l-1.5-5c-8.4-28.6-16.3-55.7-53.5-56h-5c-37.2.3-45 27.4-53.4 56l-1.4 5a9943.2 9943.2 0 0 1-26.1 86.3l-11.6 37-4 11.3c-1.5 4.5-3.3 9.7-9.6 9.7-26 0-44.8-6.3-57.4-19-20.5-20.8-19.8-54.4-19-86.9l.2-17.9c0-102-13.5-134-43.7-167.4a223.1 223.1 0 0 1-55.3-122.8c-5.3-44.5 4-86.3 25.3-114.5 30.8-40.8 81.2-65 134.7-65 24 0 47 4.8 68.6 14.4 10.9 4.9 26 13.2 38 19.8 6.4 3.6 13.4 7.4 16.2 8.7h2c2.9-1.3 9.9-5.1 16.1-8.7 12.2-6.6 27.3-15 38-19.8a167.7 167.7 0 0 1 68.7-14.5c53.6 0 103.9 24.3 134.7 65 21.4 28.3 30.6 70.1 25.3 114.7a223.1 223.1 0 0 1-55.3 122.8C710.3 551 696.8 583 696.8 685l.3 18c.7 32.4 1.4 66-19 86.7-12.6 12.8-31.5 19-57.5 19"/><path fill="#fff" stroke="#322f30" stroke-linecap="round" stroke-width="14.5" d="M595.3 394.5c0-17 13-30.6 28.9-30.6 16 0 29 13.7 29 30.6m-282.3 0c0-17 13-30.6 28.9-30.6 16 0 29 13.7 29 30.6"/><path fill="#770f19" d="M449.2 469.9a62.5 62.5 0 0 0 62.8 61.7 62.6 62.6 0 0 0 62.8-61.7H449.2"/></svg>