<svg xmlns="http://www.w3.org/2000/svg" width="1400" height="1400" viewBox="0 0 1400 1400"><path fill="#fff" d="M0 0h1400v1400H0Z"/><path id="logo-title" fill="#375359" stroke="#375359" stroke-width="4" d="M260.48 494.9c-2.58 1.86-6.15 3.64-10.71 5.33a42.67 42.67 0 0 1-14.97 2.55c-9.14 0-17.12-2-23.94-6a41.37 41.37 0 0 1-15.75-16.1 45.72 45.72 0 0 1-5.52-22.26c0-8.81 1.84-16.69 5.52-23.64a40.72 40.72 0 0 1 15.39-16.3c6.58-3.91 14.08-5.87 22.48-5.87a48 48 0 0 1 14.36 2.06c4.41 1.38 8.3 3.11 11.7 5.2l-5.57 13.22c-6.56-4.6-13.22-6.9-20-6.9-5.18 0-10.01 1.4-14.5 4.19a30.54 30.54 0 0 0-10.72 11.39c-2.67 4.8-4 10.07-4 15.8 0 6.06 1.23 11.5 3.69 16.3a27.35 27.35 0 0 0 10.54 11.29c4.57 2.7 9.85 4.04 15.83 4.04 4.28 0 8.14-.64 11.56-1.93a28.36 28.36 0 0 0 8.68-4.97zm32.97-81.32v74.65h43.52v13.58h-57.69v-88.23zm76.36 0v88.23h-14.17v-88.23zm-3.15-5.7h-8.47l9.81-16.24h15.03zm105.32 5.7v91.39h-.35L408 443.27l.36 58.54h-14.3v-91.26h.72l63.4 62.42-.24-59.4zm38.55 0v88.23h-14.17v-88.23zm89.68 81.33c-2.58 1.85-6.15 3.63-10.71 5.32a42.67 42.67 0 0 1-14.97 2.55c-9.14 0-17.12-2-23.94-6a41.37 41.37 0 0 1-15.75-16.1 45.72 45.72 0 0 1-5.52-22.26c0-8.81 1.84-16.69 5.52-23.64a40.72 40.72 0 0 1 15.39-16.3c6.58-3.91 14.08-5.87 22.48-5.87a48 48 0 0 1 14.36 2.06c4.41 1.38 8.3 3.11 11.7 5.2l-5.57 13.22c-6.56-4.6-13.22-6.9-20-6.9-5.18 0-10.01 1.4-14.5 4.19a30.54 30.54 0 0 0-10.72 11.39c-2.67 4.8-4 10.07-4 15.8 0 6.06 1.23 11.5 3.69 16.3a27.35 27.35 0 0 0 10.54 11.29c4.58 2.7 9.85 4.04 15.83 4.04 4.28 0 8.14-.64 11.57-1.93a28.36 28.36 0 0 0 8.67-4.97zm64.13-13.82h-32.12l-8.49 20.72H609.8l39.03-91.87h.84l39.03 91.87h-16.23zm-4.73-12.12-11.03-27.88-11.4 27.88zm82.91-55.4h25.08c11.07 0 20.22 2.2 27.45 6.56 7.24 4.36 12.52 9.98 15.83 16.84a49.85 49.85 0 0 1 4.97 21.94c0 8.56-2 16.1-6 22.6s-9.36 11.52-16.06 15.04a46.6 46.6 0 0 1-21.94 5.26h-29.33zm26.78 74.66c6.3 0 11.85-1.17 16.66-3.51a26.16 26.16 0 0 0 11.28-10.36c2.7-4.56 4.06-10.04 4.06-16.42 0-6.95-1.48-12.74-4.42-17.4a27.07 27.07 0 0 0-11.28-10.23 32.28 32.28 0 0 0-14.11-3.28h-14.8v61.2zm123.99-74.65v13.58h-44.36v23.51h39.52v13.56h-39.52v24h46.06v13.58h-60.23v-88.23zm99.14 0v91.39h-.36l-63.62-61.7.35 58.54h-14.3v-91.26h.73l63.39 62.42-.24-59.4zm77.1 0v13.58h-22.79v74.65h-14.06v-74.65h-22.19v-13.58zm63.26 67.51h-32.12l-8.49 20.72h-13.93l39.03-91.87h.84l39.03 91.87h-16.23zm-4.73-12.12-11.03-27.88-11.4 27.88zm58.3-55.4v74.66h43.52v13.58h-57.7v-88.23zm0 0"/><path id="logo-subtitle" fill="#375359" d="M503.92 671a18.56 18.56 0 0 1-7.86 1.67c-2.82 0-5.05-.73-6.69-2.2-1.62-1.47-2.52-4.06-2.71-7.76l-2.74-49.37-17.08 54.16c-.97 2.98-3.05 4.48-6.24 4.48-1.82-.07-3.1-.46-3.8-1.17a7.84 7.84 0 0 1-1.75-3.43l-17.67-54.13-2.83 49.18c-.26 3.63-.99 6.31-2.2 8.05-1.2 1.71-3.34 2.57-6.4 2.57-3.05 0-5.77-1.27-8.17-3.81 1.9-1.75 2.93-4.35 3.12-7.8l3.9-49.84v-1.28c0-3.05-.64-5.49-1.95-7.32a31.04 31.04 0 0 1 15.03-3.8c5.34 0 9.1 1.26 11.27 3.8s4.07 6.84 5.69 12.89l7.81 27.98 7.62-27.5c1.88-6.83 4.26-11.4 7.15-13.7 2.9-2.32 6.68-3.48 11.33-3.48 4.66 0 8.63.73 11.93 2.17-1.15 1.94-1.73 4.34-1.73 7.22 0 .57.03 1.22.1 1.95l2.92 50.51c.13 4.56.78 7.88 1.95 9.96zm48.29-60.28v51.2c0 3.51 1.04 5.82 3.12 6.94-2.48 2.79-5.41 4.19-8.8 4.19-3.37 0-5.84-.95-7.4-2.84-1.55-1.89-2.33-4.8-2.33-8.76v-51.32c0-3.39-1.08-5.63-3.24-6.72a11.1 11.1 0 0 1 8.88-4.22c6.51 0 9.77 3.85 9.77 11.53zm50.24.38v22.94h5.54c4.56 0 8.04-1 10.44-2.98 2.4-1.99 3.62-4.81 3.62-8.48 0-3.68-1.21-6.52-3.62-8.5-2.4-1.99-5.88-2.98-10.44-2.98zm41.15 55.42c-2.2 4.35-5.72 6.53-10.53 6.53a12.8 12.8 0 0 1-6.93-1.96c-2.08-1.3-4.32-3.86-6.74-7.69l-11.31-18.46h-5.74v16.99c0 3.5 1.07 5.81 3.21 6.93a11.58 11.58 0 0 1-8.97 4.19c-6.39 0-9.58-3.87-9.58-11.6V611.2c0-3.32-1.1-5.56-3.3-6.72a11.27 11.27 0 0 1 8.97-4.31h16.2c7.87 0 14.65 1.97 20.33 5.9 5.69 3.94 8.53 9.45 8.53 16.54 0 4.62-1.27 8.57-3.81 11.86a24.83 24.83 0 0 1-10.22 7.66l11.5 17.06a24.23 24.23 0 0 0 8.39 7.33zm46.44-17.57h15.22l-7.12-25.06zm42.32 18.55a8.84 8.84 0 0 1-3.95 4.05c-1.84 1-4.03 1.5-6.57 1.5s-4.63-.64-6.27-1.9c-1.62-1.28-3.08-3.53-4.38-6.77l-2.33-6.05H686.7l-2.43 6.81c-1.83 5.27-4.91 7.9-9.26 7.9-2.08 0-4.05-.46-5.91-1.4-1.86-.95-3.08-2.14-3.67-3.57a6.33 6.33 0 0 0 2.79-2.29 27.49 27.49 0 0 0 2.5-5.02l19.98-51.61c-1.16-2.54-2.42-4.3-3.79-5.26 2.02-3.13 5.14-4.7 9.36-4.7 3.26 0 5.63.89 7.12 2.65 1.5 1.76 3.1 4.91 4.8 9.45l17.45 47.23c1.68 4.62 3.92 7.61 6.71 8.98zm29.28-11.81v-45.56c0-3.39-1.08-5.63-3.23-6.72a11.1 11.1 0 0 1 8.88-4.22c6.5 0 9.76 3.85 9.76 11.53v43.01c0 4.62 2.02 6.93 6.05 6.93h10.05c4.6 0 8.12-1.3 10.53-3.9 1.56 1.1 2.33 2.95 2.33 5.52a9.09 9.09 0 0 1-3.07 6.77c-2.05 1.95-5.02 2.93-8.93 2.93h-14.62c-6.51 0-11.1-1.2-13.77-3.6-2.65-2.41-3.98-6.65-3.98-12.7zm114.91-53.95c2.67-1.7 5.5-2.55 8.48-2.55 3 0 5.31.79 6.93 2.36a7.9 7.9 0 0 1 2.43 5.96c0 2.4-.58 4.99-1.74 7.78l-18.74 45.37c-2.08 5-3.94 8.32-5.58 9.96-1.61 1.62-4.21 2.43-7.78 2.43-1.9 0-3.4-.17-4.55-.5a6.32 6.32 0 0 1-3.12-2.22 16.95 16.95 0 0 1-2.24-3.62 82.11 82.11 0 0 1-2.29-6.05l-17.64-49.75c-1.24-3.44-2.97-5.75-5.17-6.93 3.05-3.19 6.43-4.79 10.14-4.79 2.65 0 4.86.8 6.62 2.4 1.77 1.6 3.33 4.44 4.7 8.54l15 46.91 14.84-42.03c1.24-3.78 1.85-6.6 1.85-8.43 0-1.86-.71-3.47-2.14-4.84zm64.29 47.2h15.22l-7.12-25.05zm42.32 18.56a8.84 8.84 0 0 1-3.95 4.05c-1.85 1-4.04 1.5-6.58 1.5s-4.63-.64-6.26-1.9c-1.62-1.28-3.08-3.53-4.38-6.77l-2.34-6.05H937.5l-2.43 6.81c-1.82 5.27-4.91 7.9-9.26 7.9-2.08 0-4.05-.46-5.9-1.4-1.86-.95-3.09-2.14-3.67-3.57a6.33 6.33 0 0 0 2.78-2.29 27.49 27.49 0 0 0 2.5-5.02l19.98-51.61c-1.15-2.54-2.42-4.3-3.78-5.26 2.01-3.13 5.13-4.7 9.36-4.7 3.25 0 5.63.89 7.12 2.65 1.5 1.76 3.09 4.91 4.79 9.45l17.45 47.23c1.69 4.62 3.92 7.61 6.72 8.98z"/><g id="logo-dots"><g id="logo-dot-1"><path fill="#9bd5d4" d="M303.5 809.58c0 58.7-47.59 106.29-106.29 106.29S90.92 868.28 90.92 809.58s47.59-106.29 106.3-106.29c58.7 0 106.28 47.59 106.28 106.3z"/><path fill="#4497af" d="M192.81 816.8c-.4 0-.8-.18-1.08-.52a1.53 1.53 0 0 1 .13-2.1l1.57-1.42a3.77 3.77 0 0 1 5.13.03l1.52 1.4c.59.55.64 1.5.1 2.1a1.4 1.4 0 0 1-2.02.12l-1.51-1.4a.97.97 0 0 0-1.32-.01l-1.57 1.42c-.28.25-.61.37-.95.37M195.96 826.24c-.79 0-1.43-.67-1.43-1.5v-6.36c0-.82.64-1.49 1.43-1.49.8 0 1.44.67 1.44 1.5v6.36c0 .82-.64 1.49-1.44 1.49"/><path fill="#f14285" d="M250 750.1c-7.04-7.72-30.22-3-46.68 4.4a17.97 17.97 0 0 1-14.77 0c-16.46-7.4-39.64-12.12-46.68-4.4-5.62 6.17-6.24 17.83-.62 27.76 37.23 18.5 73.69 18.51 109.37 0 5.62-9.93 5-21.6-.62-27.76"/><path fill="#eeecf8" d="M249.7 789.15c-1.25 3.12-13.86 4.96-14.5 2.2a6.3 6.3 0 0 1-.2.63c-1.2 2.86-11.04 4.54-15.68 3.58-1.31-.28-2.21-.75-2.38-1.47v-.05a4.1 4.1 0 0 1-3.28 3.21 53.24 53.24 0 0 1-13.9.7c-1.03-.1-2.72-.52-3.2-1.63-.34-.76-.91-.76-1.25 0-.49 1.1-2.17 1.54-3.2 1.62-4.36.38-9.65.14-13.9-.69a4.1 4.1 0 0 1-3.28-3.2v.04c-.81 3.27-16.52 1.55-18.06-2.11a6.37 6.37 0 0 1-.2-.64c-.64 2.77-13.25.93-14.5-2.2-.91-2.26-1.75-13.9.28-17.48 2.74-4.86 11.1-2.18 13.53 4.65.15.44.75.4.83-.07.3-1.81.72-3.4 1.26-4.47 1.66-3.27 8-3.3 12.28 0 1.98 1.53 2.98 4.24 3.83 6.83.14.42.73.35.77-.1.07-.97.15-1.92.25-2.5 1.78-10.68 17.13-7.87 19.5 2.7.2.88.38 1.78.53 2.69a.7.7 0 0 0 .7.62.7.7 0 0 0 .71-.62c.15-.9.33-1.81.53-2.68 2.37-10.58 17.72-13.39 19.5-2.72.05.28.09.65.14 1.06v.1c.04.42.08.88.1 1.35.05.45.64.52.77.1.23-.66.45-1.32.7-1.97.73-1.91 1.66-3.72 3.14-4.86 4.28-3.3 10.62-3.27 12.28 0 .54 1.07.96 2.66 1.26 4.47.08.47.68.51.84.07 2.42-6.83 10.78-9.5 13.52-4.65 2.02 3.58 1.2 15.22.28 17.49"/><path fill="#eeecf8" stroke="#423b6f" stroke-width="5.8" d="M249.73 856.78c-1.25 3.12-13.86 4.97-14.5 2.2a6.4 6.4 0 0 1-.2.63c-1.2 2.86-11.04 4.54-15.68 3.58-1.31-.27-2.21-.75-2.38-1.46v-.05a4.12 4.12 0 0 1-3.28 3.2 53.43 53.43 0 0 1-13.9.7c-1.03-.1-2.72-.52-3.2-1.63-.34-.76-.91-.76-1.25 0-.49 1.11-2.17 1.54-3.2 1.63-4.36.37-9.65.14-13.9-.7a4.12 4.12 0 0 1-3.28-3.2v.05c-.81 3.26-16.52 1.54-18.06-2.12l-.2-.64c-.64 2.78-13.25.93-14.5-2.19-.91-2.27-1.75-13.9.28-17.5 2.74-4.85 11.1-2.16 13.52 4.67.16.43.76.4.84-.07.3-1.82.72-3.4 1.26-4.48 1.66-3.27 8-3.3 12.28 0 1.98 1.52 2.98 4.24 3.83 6.83.14.43.73.36.77-.1.07-.97.15-1.92.25-2.5 1.78-10.67 17.13-7.87 19.5 2.7.2.88.37 1.78.53 2.69a.7.7 0 0 0 .7.62.7.7 0 0 0 .71-.62c.16-.9.33-1.8.53-2.68 2.37-10.58 17.72-13.38 19.5-2.71.05.27.09.64.13 1.05v.1c.05.43.1.88.12 1.35.04.46.63.53.76.1.23-.66.45-1.32.7-1.97.73-1.91 1.66-3.72 3.14-4.86 4.28-3.3 10.62-3.27 12.28 0a16.6 16.6 0 0 1 1.26 4.48c.08.46.68.5.84.07 2.41-6.83 10.78-9.52 13.51-4.66 2.03 3.58 1.2 15.22.3 17.5"/></g><g id="logo-dot-2"><path fill="#9bd5d4" d="M529.92 929.64c0 57.28-46.44 103.71-103.72 103.71S322.5 986.92 322.5 929.64c0-57.28 46.43-103.72 103.71-103.72 57.28 0 103.72 46.44 103.72 103.72z"/><path fill="#fff" stroke="#bdbcbc" stroke-width="3.4" d="M447.94 984.25c-1.3 0-1.67-1.05-2-2a96.8 96.8 0 0 1-.79-2.34c-.59-1.81-1.4-4.39-2.4-7.64-1.93-6.28-4.12-13.55-5.4-17.87l-.3-1.03c-1.73-5.92-3.37-11.51-11.06-11.58l-.32.01h-.15l-.56-.01c-7.7.07-9.32 5.66-11.05 11.58l-.3 1.03a2057.1 2057.1 0 0 1-5.4 17.87c-1.01 3.25-1.82 5.82-2.4 7.64-.34 1.02-.6 1.81-.8 2.35-.33.93-.7 2-2 2-5.38 0-9.27-1.3-11.88-3.94-4.24-4.3-4.09-11.24-3.94-17.96.03-1.22.05-2.48.05-3.7 0-21.1-2.79-27.74-9.04-34.64a46.16 46.16 0 0 1-11.45-25.4c-1.09-9.21.82-17.86 5.25-23.7 6.37-8.43 16.79-13.46 27.86-13.46 4.95 0 9.72 1.01 14.2 3 2.24 1 5.36 2.72 7.87 4.1 1.3.73 2.75 1.53 3.33 1.8h.43c.58-.27 2.03-1.07 3.33-1.8 2.51-1.38 5.64-3.1 7.87-4.1a34.7 34.7 0 0 1 14.2-3c11.08 0 21.49 5.03 27.86 13.45 4.43 5.85 6.34 14.5 5.24 23.72a46.16 46.16 0 0 1-11.44 25.4c-6.25 6.9-9.04 13.53-9.04 34.63 0 1.22.02 2.49.05 3.71.15 6.71.3 13.66-3.94 17.95-2.6 2.65-6.5 3.93-11.88 3.93"/><path fill="#fff" stroke="#322f30" stroke-linecap="round" stroke-width="3" d="M442.7 898.55c0-3.5 2.69-6.33 5.98-6.33 3.31 0 5.99 2.84 5.99 6.33M396.28 898.55c0-3.5 2.68-6.33 5.98-6.33 3.3 0 5.99 2.84 5.99 6.33"/><path fill="#770f19" d="M412.48 914.14a12.94 12.94 0 0 0 13 12.77c7.13 0 12.92-5.7 12.99-12.77h-25.99"/></g><g id="logo-dot-3"><path fill="#9bd5d4" d="M807.72 977.09c0 60.88-49.35 110.24-110.24 110.24-60.88 0-110.24-49.36-110.24-110.24 0-60.88 49.36-110.24 110.24-110.24 60.89 0 110.24 49.36 110.24 110.24z"/><path fill="#fff" d="M704.55 1037.26h-18.58l.55 2.12a11.52 11.52 0 0 0 11.13 9.01c5.35 0 9.9-3.67 11.13-9.01l.56-2.12h-1.9zM714.24 1025.02H712l.78-3.34h-30.5l.78 3.34h-2.22c-1.23 0-2.23 1-2.23 2.22 0 1.23 1 2.23 2.23 2.23h3.34l.33 1.56.44 1.78h25.27l.45-1.78.22-1.56h3.34a2.23 2.23 0 0 0 0-4.45zM718.69 1008.32h-2.9l.56-2.22h-37.62l.56 2.22h-2.9a2.23 2.23 0 0 0 0 4.45h3.9l1 4.46h32.5l1-4.46h3.9c1.22 0 2.23-1 2.23-2.22 0-1.23-1-2.23-2.23-2.23zM722.03 992.74h-2.56l.55-2.23h-44.96l.56 2.23h-2.56a2.23 2.23 0 0 0 0 4.45h3.56l1 4.45H717.35l1-4.45h3.68c1.22 0 2.22-1 2.22-2.22 0-1.23-1-2.23-2.22-2.23zM735.16 916.39a20.48 20.48 0 0 0-10.46-8.9 23.16 23.16 0 0 0-7.9-1.46c-4.12 0-8.24 1.12-11.8 3.12a14.1 14.1 0 0 1-3.56 1.45c4.78 1.78 10.35 2.9 15.36.89a2.22 2.22 0 0 1 2.9 1.33 2.18 2.18 0 0 1-1.34 2.9c-2.45.89-5.01 1.33-7.46 1.33-11.35 0-21.7-8.23-23.38-9.23-2.78-1.67-6.12-1.9-9.23-1.9-7.8 0-14.47 3.79-18.37 10.47-7.12 12.13-2.56 28.04 4 38.84.45.9 1.23 4.9 1.34 12.02 0 2.67 2 4.9 4.46 5.34v7.9a5.58 5.58 0 0 0 5.56 5.57h44.52a5.51 5.51 0 0 0 5.57-5.56v-7.9a5.48 5.48 0 0 0 4.45-5.35c.11-7.12.89-11.13 1.34-12.02 6.56-10.8 11.01-26.71 4-38.84zm-14.24 64.1c0 .67-.45 1.12-1.12 1.12h-44.52c-.67 0-1.11-.45-1.11-1.11v-7.8h46.75z"/></g><g id="logo-dot-4"><path fill="#9bd5d4" d="M1071.85 938.18c0 59.62-48.34 107.96-107.96 107.96-59.63 0-107.97-48.34-107.97-107.96 0-59.63 48.34-107.97 107.97-107.97 59.62 0 107.96 48.34 107.96 107.97z"/><path fill="#dbdcd8" fill-rule="evenodd" d="M988.74 871.83c-5.8-6.19-14.28-7.19-26.25-1.6-12.5-9.66-29.67-10.6-34.63 3.76 7.87-9.79 26.67-5.52 38.28 3.46 8.66-4.05 16.48-6.44 22.6-5.62"/><path fill="#edefec" fill-rule="evenodd" d="M930.3 923.18c-5.3 43.12 3.1 73.45 20.47 95.41 2.08.97 3.79.27 4.82-3.36 2.2-14.02-6.36-33.75-.5-51.46 5.12-15.55 11.62-14.78 16.5.46 4.56 14.28 9.26 25.62 11.08 41.57.48 4.3 3.23 16.63 8.8 9.19 5.27-7.7 5.65-23.68 4.63-42-.64-11.42-3.67-21.77-3.95-32.69-.12-4.06.16-7.94.92-11.6 6.47-18.43 10.88-36.06 5.99-49.98-5.68-10.71-18.02-8.63-32.89-1.7-15.9-12.28-45.32-15.75-41.62 13.71.54 11.9 2.77 22.46 5.75 32.45"/><path fill="#6e1d2d" fill-rule="evenodd" d="M952.46 1011.95c-13.5-28.02-13.1-55.54-9.43-82.92.47-3.34.7-6.8.7-10.34 0-6.02-2.59-16.1 5.23-18.02 1.69-.4 3.7-.25 6.03.48 7.84 2.42 14.24 3.34 19.32 2.88 20.32-5.88 11.32 14.88 10.25 25.6-.83 8.26-.44 17.45 2.16 28.25 2.86 15.96 3.2 30.5 2.08 44.22-1.53-20.57-5.9-50.92-13.8-69.94-2.91-4.36-6.3-6.86-10.34-6.82-11.43.1-15.16 13.17-16.73 22.82-1.28 7.82-1.36 16.28-1.21 24.85.8 13.34 2.94 26.25 5.74 38.94"/></g><g id="logo-dot-5"><path fill="#9bd5d4" d="M1309.07 807.97c0 59.62-48.34 107.96-107.96 107.96-59.63 0-107.97-48.34-107.97-107.96 0-59.63 48.34-107.97 107.97-107.97 59.63 0 107.96 48.34 107.96 107.97z"/><g fill="#fff" stroke="#231f20" stroke-width="1.6"><path d="M1203.06 822.3v-13.6c0-6.04.01-20.37 12.3-21.57 14.14-1.4 18.23 7.7 18.23 16.49v13.77c0 2.18-2.52 7.52-13.52 10.05-9.53 2.2-17.01-1.07-17.01-5.14M1233.87 815.8v-11.02c0-4.88.81-16.61 9.67-17.45 7.92-.74 14.34 6.24 14.34 13.34v11.15c0 1.77-1.98 6.08-10.63 8.13-7.5 1.77-13.38-.87-13.38-4.16"/><path d="m1257.67 809.43-.51-8.07c-.23-3.58 1-12.15 6.63-13.27 5.35-1.05 11.34 3.9 11.67 9.1l.52 8.19c.09 1.3-1.24 4.55-7.8 6.47-5.7 1.65-10.35 0-10.51-2.42M1148.43 809.43l.51-8.07c.23-3.58-1.72-11.67-6.63-13.27-6.19-2-11.33 3.9-11.67 9.1l-.52 8.19c-.08 1.3 1.24 4.55 7.8 6.47 5.7 1.65 10.35 0 10.5-2.42"/><path d="M1172.63 815.8v-11.02c0-4.88-1.44-16.43-9.68-17.45-10.11-1.24-14.33 6.24-14.33 13.34v11.15c0 1.77 1.98 6.08 10.62 8.13 7.5 1.77 13.39-.87 13.39-4.16"/><path d="M1202.97 822.3v-13.6c0-6.04 0-20.37-12.3-21.57-14.14-1.4-18.22 7.7-18.22 16.49v13.77c0 2.18 2.51 7.52 13.5 10.05 9.54 2.2 17.02-1.07 17.02-5.14"/></g><path fill="#231f20" d="M1122.58 797.88c.09.04 26.18 12.5 73.77 12.5 23.19 0 51.48-2.95 84.34-11.75a.78.78 0 0 0 .57-.97.8.8 0 0 0-.99-.55c-32.73 8.76-60.87 11.7-83.92 11.7-23.65 0-41.94-3.09-54.3-6.18a139.11 139.11 0 0 1-14.04-4.25 82.97 82.97 0 0 1-4.66-1.88l-.05-.02-.01-.01a.8.8 0 0 0-1.08.36c-.19.4-.02.86.37 1.05"/><g fill="#a1e1f9" stroke="#231f20" stroke-width="1.6"><path d="m1142.68 805.1-7.11-1.03 1.06-6.98 7.1 1.04zM1155.61 808.83l1.13-8.6 8.76 1.11-1.12 8.6zM1194.41 815.55h-12.37V803.4h12.37zM1223.96 815.55V803.4h-12.37v12.14zM1250.33 808.92l-.98-8.62-8.78.96.98 8.62zM1270.43 804.07l-1.05-6.98-7.11 1.05 1.06 6.97z"/></g></g></g></svg>